<?xml version="1.0" standalone="no"?>
<!DOCTYPE svg PUBLIC "-//W3C//DTD SVG 20010904//EN"
 "http://www.w3.org/TR/2001/REC-SVG-20010904/DTD/svg10.dtd">
<svg version="1.0" xmlns="http://www.w3.org/2000/svg"
 width="100.000000pt" height="100.000000pt" viewBox="0 0 100.000000 100.000000"
 preserveAspectRatio="xMidYMid meet">
<metadata>
Created by potrace 1.13, written by Peter Selinger 2001-2015
</metadata>
<g transform="translate(0.000000,100.000000) scale(0.100000,-0.100000)"
fill="#000000" stroke="none">
<path d="M369 976 c-173 -51 -301 -182 -348 -354 -25 -92 -26 -144 -6 -231 44
-184 177 -323 360 -376 79 -23 227 -16 307 14 124 48 241 165 289 289 30 80
37 228 14 307 -53 183 -192 316 -376 360 -87 20 -150 18 -240 -9z m289 -37
c71 -24 163 -88 210 -146 18 -23 47 -72 65 -110 30 -65 32 -74 32 -183 0 -96
-4 -124 -23 -172 -54 -134 -166 -237 -304 -279 -55 -17 -88 -21 -161 -17 -81
3 -102 8 -167 39 -126 60 -207 149 -249 270 -59 172 -20 348 106 480 127 133
309 177 491 118z"/>
<path d="M604 799 c-45 -13 -90 -63 -103 -114 -19 -75 -16 -85 24 -85 27 0 35
4 35 18 0 50 22 93 55 109 76 36 135 -19 135 -124 0 -52 0 -53 30 -53 l30 0 0
76 c0 93 -22 137 -84 165 -45 20 -74 22 -122 8z"/>
<path d="M244 562 c-27 -18 -34 -56 -34 -179 0 -185 -17 -173 235 -173 253 0
235 -14 235 182 0 189 15 178 -232 178 -106 0 -198 -4 -204 -8z"/>
</g>
</svg>
